<svg height="512pt" viewBox="0 0 512 512" width="512pt" xmlns="http://www.w3.org/2000/svg"><path d="m95.332031 222.800781h160.667969c8.285156 0 15-6.714843 15-15 0-8.285156-6.714844-15-15-15h-160.667969c-8.28125 0-15 6.714844-15 15 0 8.285157 6.71875 15 15 15zm0 0"/><path d="m191.734375 257.066406h-96.402344c-8.28125 0-15 6.714844-15 15s6.71875 15 15 15h96.402344c8.28125 0 15-6.714844 15-15s-6.714844-15-15-15zm0 0"/><path d="m191.734375 321.332031h-96.402344c-8.28125 0-15 6.71875-15 15 0 8.285157 6.71875 15 15 15h96.402344c8.28125 0 15-6.714843 15-15 0-8.28125-6.714844-15-15-15zm0 0"/><path d="m191.734375 385.601562h-96.402344c-8.28125 0-15 6.714844-15 15 0 8.28125 6.71875 15 15 15h96.402344c8.28125 0 15-6.71875 15-15 0-8.285156-6.714844-15-15-15zm0 0"/><path d="m383.46875 225.714844v-178.582032c0-12.597656-4.90625-24.433593-13.804688-33.316406-8.894531-8.910156-20.734374-13.816406-33.332031-13.816406h-224.933593c-3.976563 0-7.792969 1.578125-10.605469 4.394531l-96.398438 96.398438c-2.816406 2.8125-4.394531 6.628906-4.394531 10.605469v353.46875c0 25.988281 21.144531 47.132812 47.132812 47.132812h321.335938c79.140625 0 143.53125-64.390625 143.53125-143.53125 0-74.082031-56.410156-135.230469-128.53125-142.753906zm-271-190.570313v60.1875c0 9.449219-7.6875 17.132813-17.136719 17.132813h-60.1875zm-65.335938 446.855469c-9.445312 0-17.132812-7.6875-17.132812-17.132812v-322.398438h65.332031c25.988281 0 47.136719-21.144531 47.136719-47.132812v-65.335938h193.863281c4.578125 0 8.878907 1.78125 12.121094 5.027344 3.230469 3.230468 5.015625 7.53125 5.015625 12.105468v178.582032c-72.121094 7.523437-128.535156 68.671875-128.535156 142.753906 0 46.136719 21.890625 87.257812 55.824218 113.53125zm321.335938 0c-62.605469 0-113.535156-50.929688-113.535156-113.53125 0-62.605469 50.929687-113.535156 113.535156-113.535156 62.601562 0 113.53125 50.929687 113.53125 113.535156 0 62.601562-50.929688 113.53125-113.53125 113.53125zm0 0"/><path d="m416.667969 353.46875h-33.199219v-49.269531c0-8.285157-6.71875-15-15-15-8.285156 0-15 6.714843-15 15v64.269531c0 8.28125 6.714844 15 15 15h48.199219c8.28125 0 15-6.71875 15-15 0-8.285156-6.71875-15-15-15zm0 0"/></svg>