<svg height="512pt" viewBox="-64 0 512 512" width="512pt" xmlns="http://www.w3.org/2000/svg"><path d="m239.933594 257.066406h-96.402344c-8.28125 0-15 6.714844-15 15s6.71875 15 15 15h96.402344c8.285156 0 15-6.714844 15-15s-6.714844-15-15-15zm0 0"/><path d="m239.933594 192.800781h-96.402344c-8.28125 0-15 6.714844-15 15 0 8.285157 6.71875 15 15 15h96.402344c8.285156 0 15-6.714843 15-15 0-8.285156-6.714844-15-15-15zm0 0"/><path d="m191.734375 321.332031h-48.203125c-8.28125 0-15 6.71875-15 15 0 8.285157 6.71875 15 15 15h48.203125c8.28125 0 15-6.714843 15-15 0-8.28125-6.71875-15-15-15zm0 0"/><path d="m288.132812 112.46875h-192.800781c-8.175781 0-16.179687 3.316406-21.964843 9.097656-5.785157 5.785156-9.101563 13.792969-9.101563 21.964844v273.132812c0 8.175782 3.316406 16.183594 9.101563 21.96875 5.785156 5.78125 13.792968 9.101563 21.964843 9.101563h192.800781c8.175782 0 16.183594-3.320313 21.964844-9.101563 5.785156-5.785156 9.101563-13.789062 9.101563-21.96875v-273.132812c0-8.175781-3.316407-16.179688-9.097657-21.960938-5.785156-5.785156-13.792968-9.101562-21.96875-9.101562zm1.066407 304.199219c0 .277343-.113281.550781-.3125.753906-.199219.199219-.476563.3125-.753907.3125h-192.800781c-.277343 0-.550781-.117187-.75-.3125-.199219-.203125-.316406-.476563-.316406-.753906v-273.136719c0-.277344.113281-.550781.3125-.75.203125-.199219.476563-.3125.753906-.3125h192.800781c.277344 0 .550782.113281.753907.3125.199219.199219.3125.472656.3125.75zm0 0"/><path d="m336.332031 32.132812h-89.550781c-12.011719-21.207031-33.691406-32.132812-55.0625-32.132812-23.558594 0-44.132812 12.96875-54.996094 32.132812h-89.589844c-25.988281 0-47.132812 21.144532-47.132812 47.132813v385.601563c0 26.359374 21.410156 47.132812 47.132812 47.132812h289.199219c25.824219 0 47.136719-20.867188 47.136719-47.132812v-385.601563c-.003906-25.988281-21.148438-47.132813-47.136719-47.132813zm-144.597656-2.132812c18.351563 0 33.199219 14.839844 33.199219 33.199219v1.066406h-66.402344v-1.082031c0-18.296875 14.886719-33.183594 33.203125-33.183594zm161.730469 434.867188c0 9.355468-7.5625 17.132812-17.132813 17.132812h-289.199219c-9.335937 0-17.132812-7.546875-17.132812-17.132812v-385.601563c0-9.445313 7.6875-17.132813 17.132812-17.132813h81.425782c-.003906.351563-.027344.699219-.027344 1.050782v16.082031c0 8.285156 6.71875 15 15 15h96.402344c8.285156 0 15-6.714844 15-15v-16.066406c0-.355469-.019532-.710938-.027344-1.066407h81.425781c9.449219 0 17.136719 7.6875 17.136719 17.132813v385.601563zm0 0"/></svg>