<?xml version="1.0" standalone="no"?>
<!DOCTYPE svg PUBLIC "-//W3C//DTD SVG 20010904//EN"
 "http://www.w3.org/TR/2001/REC-SVG-20010904/DTD/svg10.dtd">
<svg version="1.0" xmlns="http://www.w3.org/2000/svg"
 width="512.000000pt" height="512.000000pt" viewBox="0 0 512.000000 512.000000"
 preserveAspectRatio="xMidYMid meet">

<g transform="translate(0.000000,512.000000) scale(0.100000,-0.100000)" stroke="none">
<path d="M1961 5104 c-169 -45 -301 -180 -346 -351 -13 -48 -15 -167 -15 -743
l0 -686 23 -44 c27 -53 74 -80 137 -80 57 0 109 27 135 71 19 33 20 57 25 731
5 684 5 697 26 724 11 15 33 37 48 48 27 21 30 21 1366 21 1336 0 1339 0 1366
-21 15 -11 37 -33 48 -48 l21 -27 0 -2139 0 -2139 -21 -27 c-11 -15 -33 -37
-48 -48 -27 -21 -30 -21 -1366 -21 -1336 0 -1339 0 -1366 21 -15 11 -37 33
-48 48 -21 27 -21 40 -26 726 -5 686 -5 699 -26 726 -32 44 -68 66 -117 71
-67 8 -129 -25 -156 -81 -21 -41 -21 -56 -21 -727 0 -743 0 -740 56 -851 36
-71 123 -159 193 -197 121 -64 41 -61 1511 -61 1167 0 1343 2 1395 15 172 45
305 179 350 352 23 87 23 4299 0 4386 -45 173 -178 307 -350 352 -86 22 -2710
22 -2794 -1z"/>
<path d="M895 3506 c-16 -8 -222 -207 -457 -442 -462 -464 -450 -450 -433
-542 6 -32 60 -90 433 -465 235 -236 440 -435 456 -444 68 -36 181 8 212 83
17 40 18 97 3 127 -6 12 -135 147 -287 300 l-277 277 1424 0 c1418 0 1425 0
1467 21 110 53 110 225 0 278 -42 21 -49 21 -1466 21 l-1425 0 282 283 c243
243 282 287 288 320 25 132 -101 237 -220 183z"/>
</g>
</svg>
